# xmcd
#
# Track frame offsets:
#	150
#	15109
#	34420
#	51341
#	74280
#	91318
#	113161
#	130541
#	154924
#	176362
#	190109
#
# Disc length: 2770 seconds
#
# Revision: 1
# Processed by: cddbd v1.5.2PL0 Copyright (c) Steve Scherf et al.
# Submitted via: audiograbber 1.83.01
#
DISCID=850ad00b
DTITLE=Peter McGraw - More McGraw
DYEAR=2009
DGENRE=Blues
TTITLE0=My Suitcae Is gone
TTITLE1=I Gotta Go To New Orleans
TTITLE2=Party, Party, Party
TTITLE3=Big Hill
TTITLE4=They Call Me The Mad Dog
TTITLE5=Ain't That  A Crying Shame
TTITLE6=I Had The blues
TTITLE7=I'm Alone
TTITLE8=I Think I Lost My Mojo
TTITLE9=Wait A Minute
TTITLE10=What A Shame
EXTD=
EXTT0=
EXTT1=
EXTT2=
EXTT3=
EXTT4=
EXTT5=
EXTT6=
EXTT7=
EXTT8=
EXTT9=
EXTT10=
PLAYORDER=
